<svg xmlns="http://www.w3.org/2000/svg" xmlns:xlink="http://www.w3.org/1999/xlink" width="500" zoomAndPan="magnify" viewBox="0 0 375 374.999991" height="500" preserveAspectRatio="xMidYMid meet" version="1.0"><defs><clipPath id="e310c1c80b"><path d="M 148 10.660156 L 215 10.660156 L 215 77 L 148 77 Z M 148 10.660156 " clip-rule="nonzero"/></clipPath><clipPath id="c9da36360f"><path d="M 148 283 L 215 283 L 215 349.660156 L 148 349.660156 Z M 148 283 " clip-rule="nonzero"/></clipPath><clipPath id="5a0e097f7a"><path d="M 11.628906 147 L 78 147 L 78 214 L 11.628906 214 Z M 11.628906 147 " clip-rule="nonzero"/></clipPath><clipPath id="379993dd8e"><path d="M 284 147 L 350.628906 147 L 350.628906 214 L 284 214 Z M 284 147 " clip-rule="nonzero"/></clipPath></defs><rect x="-37.5" width="450" fill="#ffffff" y="-37.499999" height="449.999989" fill-opacity="1"/><path fill="#e48e66" d="M 156.707031 217.507812 L 205.546875 217.507812 L 205.546875 205.296875 L 156.707031 205.296875 Z M 156.707031 217.507812 " fill-opacity="1" fill-rule="nonzero"/><path fill="#e48e66" d="M 234.996094 237.140625 L 234.996094 270.796875 L 181.128906 270.796875 L 181.128906 229.808594 L 193.257812 237.898438 L 205.390625 213.640625 L 205.390625 213.570312 L 205.40625 213.570312 L 223.445312 220.082031 C 230.007812 223.363281 234.386719 229.832031 234.996094 237.140625 Z M 234.996094 237.140625 " fill-opacity="1" fill-rule="nonzero"/><path fill="#f8ec7d" d="M 228.4375 146.535156 C 228.628906 147.320312 228.726562 148.125 228.726562 148.929688 C 228.726562 153.792969 225.238281 157.957031 220.449219 158.808594 L 220.449219 158.871094 C 220.59375 169.417969 216.5 179.585938 209.09375 187.09375 C 201.683594 194.605469 191.574219 198.832031 181.023438 198.832031 C 170.472656 198.832031 160.363281 194.605469 152.957031 187.09375 C 145.546875 179.585938 141.453125 169.417969 141.597656 158.871094 L 141.597656 158.816406 C 141.597656 158.972656 138.332031 157.628906 138.050781 157.457031 C 134.355469 155.164062 132.550781 150.757812 133.589844 146.535156 C 134.363281 143.355469 137.09375 141.03125 140.355469 140.78125 L 140.320312 140.242188 L 140.296875 140.070312 L 140.355469 140.0625 L 140.457031 140.460938 C 145.160156 140.460938 149.003906 136.433594 149.425781 131.75 C 150.199219 123.167969 154.5625 117.695312 160.542969 113.277344 L 164.273438 113.316406 C 168.183594 113.351562 171.335938 116.53125 171.332031 120.445312 C 171.335938 124.121094 174.308594 127.097656 177.980469 127.097656 L 201.589844 127.097656 C 208.328125 127.097656 213.792969 132.554688 213.792969 139.292969 C 213.792969 142.960938 218.402344 144.59375 220.707031 141.742188 L 221.730469 140.484375 L 221.707031 140.78125 C 224.953125 141.046875 227.667969 143.367188 228.4375 146.535156 Z M 228.4375 146.535156 " fill-opacity="1" fill-rule="nonzero"/><path fill="#e48e66" d="M 181.027344 89.519531 C 192.589844 89.519531 203.632812 94.316406 211.523438 102.765625 C 219.40625 111.222656 223.4375 122.566406 222.644531 134.097656 L 221.730469 140.484375 L 220.707031 141.742188 C 218.402344 144.59375 213.792969 142.960938 213.792969 139.292969 C 213.792969 132.554688 208.328125 127.097656 201.589844 127.097656 L 177.980469 127.097656 C 174.308594 127.097656 171.335938 124.121094 171.332031 120.445312 C 171.335938 116.53125 168.183594 113.351562 164.273438 113.316406 L 160.542969 113.277344 L 143.59375 113.105469 L 154.847656 105.628906 C 158.386719 103.28125 160.511719 99.3125 160.507812 95.066406 C 163.742188 93.519531 166.828125 91.875 170.304688 90.941406 C 173.800781 90.003906 177.40625 89.523438 181.027344 89.519531 Z M 181.027344 89.519531 " fill-opacity="1" fill-rule="nonzero"/><path fill="#af593c" d="M 194.414062 216.53125 L 205.390625 205.554688 L 205.390625 213.640625 L 193.257812 237.898438 L 181.128906 229.808594 Z M 194.414062 216.53125 " fill-opacity="1" fill-rule="nonzero"/><path fill="#e8da77" d="M 194.414062 201.035156 L 194.414062 216.53125 L 181.128906 229.808594 L 167.871094 216.558594 L 167.871094 196.367188 L 167.972656 196.089844 C 176.519531 199.074219 185.832031 199.039062 194.359375 195.988281 L 194.414062 196.148438 Z M 194.414062 201.035156 " fill-opacity="1" fill-rule="nonzero"/><path fill="#e48e66" d="M 181.128906 229.808594 L 181.128906 270.796875 L 127.261719 270.796875 L 127.261719 237.140625 C 127.871094 229.832031 132.246094 223.363281 138.808594 220.082031 L 156.832031 213.578125 L 156.867188 213.578125 L 156.867188 213.640625 L 168.996094 237.898438 Z M 181.128906 229.808594 " fill-opacity="1" fill-rule="nonzero"/><path fill="#af593c" d="M 167.871094 216.558594 L 181.128906 229.808594 L 168.996094 237.898438 L 156.867188 213.640625 L 156.867188 205.554688 Z M 167.871094 216.558594 " fill-opacity="1" fill-rule="nonzero"/><path fill="#af593c" d="M 143.59375 113.105469 L 160.542969 113.277344 C 154.5625 117.695312 150.199219 123.167969 149.425781 131.75 C 149.003906 136.433594 145.160156 140.460938 140.457031 140.460938 L 140.355469 140.0625 L 140.296875 140.070312 L 139.421875 134.097656 C 138.9375 127.292969 140.140625 120.46875 142.929688 114.234375 Z M 143.59375 113.105469 " fill-opacity="1" fill-rule="nonzero"/><path fill="#2561a1" d="M 310.375 152.484375 C 299.492188 101.570312 259.71875 61.792969 208.800781 50.914062 L 210.597656 42.484375 C 264.839844 54.078125 307.210938 96.449219 318.800781 150.691406 Z M 310.375 152.484375 " fill-opacity="1" fill-rule="nonzero"/><path fill="#2561a1" d="M 51.882812 152.484375 L 43.453125 150.691406 C 55.046875 96.449219 97.417969 54.078125 151.660156 42.484375 L 153.453125 50.914062 C 102.539062 61.792969 62.765625 101.570312 51.882812 152.484375 Z M 51.882812 152.484375 " fill-opacity="1" fill-rule="nonzero"/><path fill="#2561a1" d="M 151.660156 317.832031 C 97.417969 306.242188 55.046875 263.871094 43.453125 209.628906 L 51.882812 207.832031 C 62.765625 258.75 102.539062 298.523438 153.453125 309.40625 Z M 151.660156 317.832031 " fill-opacity="1" fill-rule="nonzero"/><path fill="#2561a1" d="M 210.597656 317.832031 L 208.800781 309.40625 C 259.71875 298.523438 299.492188 258.75 310.375 207.832031 L 318.800781 209.628906 C 307.210938 263.871094 264.839844 306.242188 210.597656 317.832031 Z M 210.597656 317.832031 " fill-opacity="1" fill-rule="nonzero"/><g clip-path="url(#e310c1c80b)"><path fill="#6fe3ff" d="M 181.128906 10.660156 C 162.890625 10.679688 148.113281 25.460938 148.089844 43.695312 C 148.089844 44.851562 148.148438 46.007812 148.273438 47.160156 C 150.046875 63.96875 164.21875 76.726562 181.125 76.726562 C 198.023438 76.730469 212.203125 63.976562 213.984375 47.167969 C 214.105469 46.015625 214.167969 44.855469 214.167969 43.695312 C 214.144531 25.460938 199.363281 10.679688 181.128906 10.660156 Z M 181.128906 10.660156 " fill-opacity="1" fill-rule="nonzero"/></g><g clip-path="url(#c9da36360f)"><path fill="#6fe3ff" d="M 213.984375 313.15625 C 212.210938 296.351562 198.035156 283.589844 181.132812 283.589844 C 164.230469 283.585938 150.054688 296.34375 148.273438 313.148438 C 148.148438 314.300781 148.089844 315.460938 148.089844 316.621094 C 148.089844 334.867188 162.882812 349.660156 181.128906 349.660156 C 199.375 349.660156 214.167969 334.867188 214.167969 316.621094 C 214.167969 315.464844 214.105469 314.308594 213.984375 313.15625 Z M 213.984375 313.15625 " fill-opacity="1" fill-rule="nonzero"/></g><g clip-path="url(#5a0e097f7a)"><path fill="#6fe3ff" d="M 48.128906 147.304688 C 46.976562 147.179688 45.820312 147.121094 44.667969 147.121094 C 26.417969 147.121094 11.628906 161.910156 11.628906 180.160156 C 11.628906 198.40625 26.417969 213.199219 44.667969 213.199219 C 45.820312 213.199219 46.96875 213.136719 48.117188 213.019531 C 64.929688 211.25 77.695312 197.074219 77.699219 180.167969 C 77.703125 163.257812 64.941406 149.078125 48.128906 147.304688 Z M 48.128906 147.304688 " fill-opacity="1" fill-rule="nonzero"/></g><g clip-path="url(#379993dd8e)"><path fill="#6fe3ff" d="M 317.589844 147.121094 C 316.433594 147.121094 315.277344 147.179688 314.125 147.304688 C 297.320312 149.078125 284.558594 163.25 284.558594 180.15625 C 284.554688 197.054688 297.3125 211.234375 314.117188 213.015625 C 315.269531 213.136719 316.429688 213.199219 317.589844 213.199219 C 335.835938 213.199219 350.628906 198.40625 350.628906 180.160156 C 350.628906 161.910156 335.835938 147.121094 317.589844 147.121094 Z M 317.589844 147.121094 " fill-opacity="1" fill-rule="nonzero"/></g></svg>